# Blender v2.76 (sub 0) OBJ File: 'voltagesource.blend'
# www.blender.org
# Port export: main only; legacy helper meshes are not renderable parts.
mtllib circuit_bench.mtl
o main
v 0.366666667 0.850000000 0.900000000
v 0.366666667 0.850000000 0.100000000
v 0.366666667 0.050000000 0.100000000
v 0.366666667 0.050000000 0.900000000
v 0.633333333 0.850000000 0.900000000
v 0.633333333 0.850000000 0.100000000
v 0.633333333 0.050000000 0.100000000
v 0.633333333 0.050000000 0.900000000
vt 1.000000 0.125000
vt 1.000000 0.062500
vt 0.812500 0.062500
vt 0.812500 0.000000
vt 0.625000 0.000000
vt 1.000000 0.000000
vt 0.812500 0.125000
vt 0.625000 0.062500
vt 0.812500 0.312500
vt 1.000000 0.312500
vt 0.531250 1.000000
vt 0.000000 1.000000
vt 0.000000 0.468750
vt 0.625000 0.125000
vt 0.531250 0.468750
vn 0.000000 1.000000 -0.000000
vn 0.000000 -0.000000 -1.000000
vn 0.000000 -1.000000 0.000000
vn 0.000000 0.000000 1.000000
vn -1.000000 0.000000 0.000000
vn 1.000000 0.000000 0.000000
usemtl None
s off
f 6/1/1 2/2/1 1/3/1
f 7/3/2 3/4/2 2/5/2
f 8/2/3 4/6/3 3/4/3
f 5/7/4 1/3/4 4/8/4
f 2/9/5 3/10/5 4/1/5
f 7/11/6 6/12/6 5/13/6
f 5/7/1 6/1/1 1/3/1
f 6/8/2 7/3/2 2/5/2
f 7/3/3 8/2/3 3/4/3
f 8/14/4 5/7/4 4/8/4
f 1/7/5 2/9/5 4/1/5
f 8/15/6 7/11/6 5/13/6
